<?xml version="1.0" encoding="utf-8"?>
<!-- Generator: Adobe Illustrator 16.0.0, SVG Export Plug-In . SVG Version: 6.00 Build 0)  -->
<!DOCTYPE svg PUBLIC "-//W3C//DTD SVG 1.1//EN" "http://www.w3.org/Graphics/SVG/1.1/DTD/svg11.dtd">
<svg version="1.1" id="Capa_1" xmlns="http://www.w3.org/2000/svg" xmlns:xlink="http://www.w3.org/1999/xlink" x="0px" y="0px"
	 width="80px" height="62.223px" viewBox="0 0 80 62.223" enable-background="new 0 0 80 62.223" xml:space="preserve">
<path fill="#FF3333" d="M73.318,0H6.68C2.986,0,0,2.986,0,6.667v48.889c0,3.681,2.986,6.667,6.68,6.667h66.639
	c3.695,0,6.682-2.986,6.682-6.667V6.667C80,2.986,77.014,0,73.318,0z M7.514,6.667h64.973c0.457,0,0.832,0.375,0.832,0.833v5.834
	H6.68V7.5C6.68,7.042,7.055,6.667,7.514,6.667z M72.486,55.556H7.514c-0.459,0-0.834-0.375-0.834-0.833V31.111h66.639v23.611
	C73.318,55.181,72.943,55.556,72.486,55.556z M26.666,41.667v5.556c0,0.917-0.75,1.666-1.666,1.666H15
	c-0.916,0-1.666-0.749-1.666-1.666v-5.556C13.334,40.75,14.084,40,15,40h10C25.916,40,26.666,40.75,26.666,41.667z M53.334,41.667
	v5.556c0,0.917-0.75,1.666-1.668,1.666H32.777c-0.916,0-1.666-0.749-1.666-1.666v-5.556c0-0.917,0.75-1.667,1.666-1.667h18.889
	C52.584,40,53.334,40.75,53.334,41.667z"/>
</svg>
