<?xml version="1.0" encoding="utf-8"?>
<!-- Generator: Adobe Illustrator 16.0.0, SVG Export Plug-In . SVG Version: 6.00 Build 0)  -->
<!DOCTYPE svg PUBLIC "-//W3C//DTD SVG 1.1//EN" "http://www.w3.org/Graphics/SVG/1.1/DTD/svg11.dtd">
<svg version="1.1" id="Capa_1" xmlns="http://www.w3.org/2000/svg" xmlns:xlink="http://www.w3.org/1999/xlink" x="0px" y="0px"
	 width="150px" height="41.941px" viewBox="0 0 150 41.941" enable-background="new 0 0 150 41.941" xml:space="preserve">
<g>
	<path fill="#AA0000" d="M74.637,0h3.672v25.979c0,2.012,0.072,3.516,0.218,4.512c0.146,0.998,0.39,1.881,0.731,2.652
		c0.667,1.561,1.646,2.783,2.94,3.666c1.292,0.885,2.751,1.326,4.378,1.326c2.824,0,4.912-1.059,6.264-3.172
		c1.353-2.117,2.029-5.393,2.029-9.832V0h3.619v26.119c0,5.322-0.962,9.289-2.888,11.902c-1.925,2.615-4.849,3.92-8.769,3.92
		c-4.193,0-7.274-1.277-9.242-3.836c-1.969-2.555-2.953-6.551-2.953-11.986V0z"/>
	<polygon fill="#AA0000" points="28.615,18.42 44.328,18.42 44.328,22.48 28.615,22.48 28.615,37.09 49.267,37.09 49.267,41.068 
		24.916,41.068 24.916,0 44.328,0 44.328,4.033 28.615,4.033 	"/>
	<polygon fill="#AA0000" points="24.932,36.16 24.916,0 28.141,0 28.141,41.068 23.725,41.068 3.209,4.852 3.201,41.068 0,41.068 
		0,0 4.416,0 	"/>
	<polygon fill="#AA0000" points="50.287,41.068 45.767,41.068 58.758,20.395 46.074,0 50.646,0 60.915,17.037 71.16,0 75.679,0 
		63.021,20.395 75.987,41.068 71.365,41.068 60.915,23.637 	"/>
	<path fill="#AA0000" d="M120.499,41.068h-3.878L131.129,0h4.415L150,41.068h-3.928l-4.467-12.891h-16.639L120.499,41.068z
		 M140.32,24.484l-7.087-20.619l-6.983,20.619H140.32z"/>
	<path fill="#AA0000" d="M98.499,4.033v2.375h-3.62V0h10.038c2.208,0,3.983,0.184,5.327,0.551c1.344,0.365,2.563,0.973,3.658,1.82
		c1.491,1.146,2.667,2.678,3.531,4.598c0.865,1.918,1.297,3.947,1.297,6.092c0,3.178-0.859,5.914-2.58,8.207
		c-1.721,2.295-3.873,3.545-6.457,3.752l9.037,16.049h-4.365l-9.451-16.859l-0.033-2.941c4.561,0.014,6.22-0.762,7.701-2.283
		c1.48-1.523,2.221-3.479,2.221-5.867c0-1.449-0.227-2.764-0.681-3.949c-0.454-1.184-1.125-2.219-2.016-3.104
		c-0.736-0.732-1.622-1.256-2.657-1.564c-1.035-0.311-2.881-0.467-5.533-0.467H98.499z"/>
	<polyline fill="#AA0000" points="113.221,37.09 120.697,37.09 119.335,41.068 115.785,41.068 	"/>
	<polyline fill="#AA0000" points="72.73,0.002 77,0.002 77.012,3.979 70.621,3.979 	"/>
</g>
<rect x="-208" y="-131" fill="none" width="697" height="316"/>
</svg>
