<?xml version="1.0" encoding="utf-8"?>
<!-- Generator: Adobe Illustrator 16.0.0, SVG Export Plug-In . SVG Version: 6.00 Build 0)  -->
<!DOCTYPE svg PUBLIC "-//W3C//DTD SVG 1.1//EN" "http://www.w3.org/Graphics/SVG/1.1/DTD/svg11.dtd">
<svg version="1.1" id="Capa_1" xmlns="http://www.w3.org/2000/svg" xmlns:xlink="http://www.w3.org/1999/xlink" x="0px" y="0px"
	 width="95.367px" height="57.221px" viewBox="0 0 95.367 57.221" enable-background="new 0 0 95.367 57.221" xml:space="preserve">
<path fill="#FF3333" d="M52.452,33.379h-2.385V20.266c0-0.659-0.534-1.192-1.191-1.192h-2.024c-0.707,0-1.396,0.209-1.982,0.602
	l-2.285,1.522c-0.548,0.364-0.695,1.104-0.331,1.651c0,0,0,0,0,0.002l1.323,1.982c0.365,0.548,1.104,0.696,1.652,0.331l0,0
	l0.07-0.046v8.261h-2.384c-0.659,0-1.192,0.533-1.192,1.192v2.384c0,0.659,0.533,1.192,1.192,1.192h9.537
	c0.657,0,1.191-0.533,1.191-1.192v-2.384C53.644,33.912,53.109,33.379,52.452,33.379L52.452,33.379z M90.599,0H4.769
	C2.135,0,0,2.136,0,4.769v47.684c0,2.633,2.135,4.769,4.769,4.769h85.83c2.632,0,4.769-2.136,4.769-4.769V4.769
	C95.367,2.136,93.23,0,90.599,0z M7.152,50.067v-9.536c5.268,0,9.537,4.269,9.537,9.536H7.152z M7.152,16.689V7.153h9.537
	C16.689,12.421,12.42,16.689,7.152,16.689z M47.684,45.3c-7.9,0-14.305-7.473-14.305-16.689c0-9.218,6.404-16.689,14.305-16.689
	c7.899,0,14.305,7.472,14.305,16.689C61.988,37.83,55.581,45.3,47.684,45.3z M88.215,50.067h-9.537c0-5.268,4.269-9.536,9.537-9.536
	V50.067z M88.215,16.689c-5.269,0-9.537-4.269-9.537-9.536h9.537V16.689z"/>
</svg>
