<?xml version="1.0" encoding="utf-8"?>
<!-- Generator: Adobe Illustrator 16.0.0, SVG Export Plug-In . SVG Version: 6.00 Build 0)  -->
<!DOCTYPE svg PUBLIC "-//W3C//DTD SVG 1.1//EN" "http://www.w3.org/Graphics/SVG/1.1/DTD/svg11.dtd">
<svg version="1.1" id="Capa_1" xmlns="http://www.w3.org/2000/svg" xmlns:xlink="http://www.w3.org/1999/xlink" x="0px" y="0px"
	 width="59px" height="58.11px" viewBox="0 0 59 58.11" enable-background="new 0 0 59 58.11" xml:space="preserve">
<path fill="#FF3333" d="M43.146,14.902c-3.718-3.482-8.544-5.391-13.663-5.386c-9.214,0.008-17.168,6.325-19.365,15.089
	c-0.159,0.638-0.728,1.088-1.386,1.088H1.916c-0.893,0-1.57-0.81-1.404-1.686C3.085,10.34,15.085,0,29.5,0
	c7.904,0,15.082,3.109,20.379,8.17l4.247-4.248C55.925,2.123,59,3.397,59,5.94v15.947c0,1.576-1.278,2.854-2.854,2.854H40.199
	c-2.544,0-3.817-3.075-2.02-4.874L43.146,14.902z M2.854,34.258h15.946c2.544,0,3.817,3.075,2.02,4.874l-4.966,4.966
	c3.718,3.482,8.544,5.392,13.664,5.386c9.209-0.008,17.167-6.321,19.364-15.088c0.159-0.639,0.728-1.089,1.386-1.089h6.816
	c0.892,0,1.569,0.81,1.404,1.687C55.915,48.66,43.915,59,29.5,59c-7.904,0-15.082-3.109-20.379-8.17l-4.247,4.248
	C3.075,56.877,0,55.603,0,53.06V37.112C0,35.536,1.278,34.258,2.854,34.258z"/>
</svg>
